<svg xmlns="http://www.w3.org/2000/svg" width="24" height="24" viewBox="330.5 574 364 364">

<path fill="#FD6A09" opacity="1.000000" stroke="none" d="&#xA;M669.828003,848.954590 &#xA;&#x9;C665.139648,851.985413 660.591980,855.265320 655.739380,858.005310 &#xA;&#x9;C630.227600,872.410461 604.630737,886.664795 579.079102,900.999512 &#xA;&#x9;C558.082092,912.779175 537.094055,924.575012 516.137939,936.427185 &#xA;&#x9;C513.307190,938.028137 511.271423,938.005493 508.139832,936.194580 &#xA;&#x9;C486.441742,923.646912 464.476379,911.562500 442.646149,899.242004 &#xA;&#x9;C414.851440,883.555115 387.124542,867.747925 359.307098,852.101624 &#xA;&#x9;C355.985443,850.233276 354.925537,847.862244 354.932312,844.127441 &#xA;&#x9;C355.037628,785.972961 355.084656,727.817932 354.875854,669.664001 &#xA;&#x9;C354.858734,664.898682 356.617645,662.456970 360.386658,660.308167 &#xA;&#x9;C380.736877,648.706055 400.977020,636.910828 421.329742,625.313110 &#xA;&#x9;C437.037811,616.362183 452.918274,607.712952 468.596191,598.710388 &#xA;&#x9;C475.583435,594.698120 482.123627,589.906189 489.118103,585.907898 &#xA;&#x9;C496.232391,581.841309 503.609192,578.218811 510.992615,574.653625 &#xA;&#x9;C512.158020,574.090881 514.227417,574.396301 515.438171,575.080322 &#xA;&#x9;C538.247803,587.966492 561.036377,600.891663 583.735229,613.971985 &#xA;&#x9;C606.011719,626.808960 628.180725,639.832581 650.404053,652.761963 &#xA;&#x9;C652.501953,653.982483 654.651306,655.114441 656.859253,656.677002 &#xA;&#x9;C656.941711,657.066467 656.817200,657.204102 656.455322,657.126465 &#xA;&#x9;C654.055237,656.334534 651.848511,655.914734 650.005310,654.859680 &#xA;&#x9;C634.424438,645.941895 618.904541,636.917419 603.377380,627.906189 &#xA;&#x9;C590.574646,620.476257 577.844238,612.919617 564.977783,605.602051 &#xA;&#x9;C549.371887,596.726440 533.563904,588.201965 518.062378,579.150513 &#xA;&#x9;C514.717957,577.197632 512.079102,576.723450 508.864380,578.565491 &#xA;&#x9;C499.936035,583.681458 491.007599,588.797485 482.064026,593.886719 &#xA;&#x9;C462.266632,605.152100 442.438629,616.363770 422.663025,627.667114 &#xA;&#x9;C402.749664,639.049255 382.941864,650.617676 362.952057,661.863098 &#xA;&#x9;C358.732513,664.236816 357.036499,667.431335 357.026062,671.938232 &#xA;&#x9;C357.011017,678.435974 356.967712,684.934082 357.019073,691.431396 &#xA;&#x9;C357.250763,720.734314 357.673767,750.036804 357.707764,779.339844 &#xA;&#x9;C357.732483,800.631775 357.317322,821.925232 356.944641,843.215393 &#xA;&#x9;C356.882019,846.794556 357.966003,849.106323 361.175720,850.857300 &#xA;&#x9;C370.232574,855.798157 379.127747,861.034180 388.141693,866.055176 &#xA;&#x9;C409.780975,878.108582 431.502350,890.015564 453.094238,902.153076 &#xA;&#x9;C471.061676,912.253235 488.897736,922.587280 506.777771,932.842529 &#xA;&#x9;C509.959381,934.667358 512.988220,935.657349 516.614563,933.622742 &#xA;&#x9;C531.969604,925.007629 547.464966,916.642395 562.813782,908.016357 &#xA;&#x9;C591.658447,891.805664 620.428101,875.461548 649.250488,859.211243 &#xA;&#x9;C655.435974,855.723755 661.713013,852.398804 668.261230,848.994995 &#xA;&#x9;C668.992432,848.978821 669.410217,848.966675 669.828003,848.954590 &#xA;z"></path>
<path fill="#F8761B" opacity="1.000000" stroke="none" d="&#xA;M670.062439,664.924500 &#xA;&#x9;C670.372498,666.120117 670.952820,667.315491 670.953735,668.511292 &#xA;&#x9;C670.996277,727.546204 670.989868,786.581055 670.978943,845.615967 &#xA;&#x9;C670.978821,846.274963 670.850037,846.933960 670.401123,847.366211 &#xA;&#x9;C670.004700,787.098633 669.988464,727.057922 669.989624,666.668274 &#xA;&#x9;C670.025452,665.854431 670.043945,665.389465 670.062439,664.924500 &#xA;z"></path>
<path fill="#FF5700" opacity="1.000000" stroke="none" d="&#xA;M669.972229,667.017151 &#xA;&#x9;C669.988464,727.057922 670.004700,787.098633 670.040161,847.612183 &#xA;&#x9;C670.059387,848.084900 669.983337,848.530762 669.905640,848.742676 &#xA;&#x9;C669.410217,848.966675 668.992432,848.978821 668.424316,848.609985 &#xA;&#x9;C668.511108,845.760925 668.953491,843.292908 668.955139,840.824646 &#xA;&#x9;C668.994507,782.880432 668.986267,724.936157 669.233154,666.996094 &#xA;&#x9;C669.479614,667.000183 669.972229,667.017151 669.972229,667.017151 &#xA;z"></path>
<path fill="#FD6A09" opacity="1.000000" stroke="none" d="&#xA;M669.989624,666.668274 &#xA;&#x9;C669.972229,667.017151 669.479614,667.000183 669.049072,666.714478 &#xA;&#x9;C666.912231,665.172058 665.172668,663.957397 663.507507,662.648315 &#xA;&#x9;C661.247620,660.871460 659.044617,659.022217 656.817200,657.204102 &#xA;&#x9;C656.817200,657.204102 656.941711,657.066467 657.004150,656.997864 &#xA;&#x9;C661.367737,659.352295 665.668823,661.775391 670.016174,664.561462 &#xA;&#x9;C670.043945,665.389465 670.025452,665.854431 669.989624,666.668274 &#xA;z"></path>
<path fill="#FE7415" opacity="1.000000" stroke="none" d="&#xA;M656.455322,657.126465 &#xA;&#x9;C659.044617,659.022217 661.247620,660.871460 663.507507,662.648315 &#xA;&#x9;C665.172668,663.957397 666.912231,665.172058 668.802673,666.710327 &#xA;&#x9;C668.986267,724.936157 668.994507,782.880432 668.955139,840.824646 &#xA;&#x9;C668.953491,843.292908 668.511108,845.760925 668.110901,848.614014 &#xA;&#x9;C661.713013,852.398804 655.435974,855.723755 649.250488,859.211243 &#xA;&#x9;C620.428101,875.461548 591.658447,891.805664 562.813782,908.016357 &#xA;&#x9;C547.464966,916.642395 531.969604,925.007629 516.614563,933.622742 &#xA;&#x9;C512.988220,935.657349 509.959381,934.667358 506.777771,932.842529 &#xA;&#x9;C488.897736,922.587280 471.061676,912.253235 453.094238,902.153076 &#xA;&#x9;C431.502350,890.015564 409.780975,878.108582 388.141693,866.055176 &#xA;&#x9;C379.127747,861.034180 370.232574,855.798157 361.175720,850.857300 &#xA;&#x9;C357.966003,849.106323 356.882019,846.794556 356.944641,843.215393 &#xA;&#x9;C357.317322,821.925232 357.732483,800.631775 357.707764,779.339844 &#xA;&#x9;C357.673767,750.036804 357.250763,720.734314 357.019073,691.431396 &#xA;&#x9;C356.967712,684.934082 357.011017,678.435974 357.026062,671.938232 &#xA;&#x9;C357.036499,667.431335 358.732513,664.236816 362.952057,661.863098 &#xA;&#x9;C382.941864,650.617676 402.749664,639.049255 422.663025,627.667114 &#xA;&#x9;C442.438629,616.363770 462.266632,605.152100 482.064026,593.886719 &#xA;&#x9;C491.007599,588.797485 499.936035,583.681458 508.864380,578.565491 &#xA;&#x9;C512.079102,576.723450 514.717957,577.197632 518.062378,579.150513 &#xA;&#x9;C533.563904,588.201965 549.371887,596.726440 564.977783,605.602051 &#xA;&#x9;C577.844238,612.919617 590.574646,620.476257 603.377380,627.906189 &#xA;&#x9;C618.904541,636.917419 634.424438,645.941895 650.005310,654.859680 &#xA;&#x9;C651.848511,655.914734 654.055237,656.334534 656.455322,657.126465 &#xA;M454.887299,708.066101 &#xA;&#x9;C456.617737,707.520874 458.515778,707.267639 460.052643,706.385315 &#xA;&#x9;C475.039276,697.781433 490.100006,689.292114 504.836792,680.275269 &#xA;&#x9;C510.046326,677.087769 514.046143,676.904785 519.391541,680.098328 &#xA;&#x9;C537.221985,690.750854 555.398315,700.823547 573.396667,711.197144 &#xA;&#x9;C576.468445,712.967590 579.027832,712.871338 582.181396,711.056396 &#xA;&#x9;C594.567200,703.928162 607.190796,697.213379 619.584473,690.098389 &#xA;&#x9;C624.258667,687.415100 628.548523,684.062195 633.711426,680.857971 &#xA;&#x9;C638.434509,678.420654 643.227295,676.106201 647.845154,673.483765 &#xA;&#x9;C649.618103,672.476929 650.992249,670.767822 652.548096,669.378662 &#xA;&#x9;C651.015137,667.984253 649.672974,666.258179 647.918457,665.248840 &#xA;&#x9;C635.833862,658.296753 623.622925,651.564209 611.531067,644.624573 &#xA;&#x9;C599.015625,637.441956 586.608704,630.070496 574.118225,622.843933 &#xA;&#x9;C556.863037,612.860657 539.637329,602.823059 522.256104,593.063232 &#xA;&#x9;C517.789856,590.555298 513.268982,587.235168 507.433350,590.723816 &#xA;&#x9;C497.173431,596.857361 486.656708,602.559937 476.279633,608.499084 &#xA;&#x9;C449.456451,623.850830 422.644867,639.223083 395.842468,654.611206 &#xA;&#x9;C389.784576,658.089233 383.729950,661.578857 377.773773,665.226379 &#xA;&#x9;C373.850494,667.628906 373.134888,670.502930 376.079224,672.133667 &#xA;&#x9;C385.951508,677.601562 395.997162,682.756348 406.359406,688.587341 &#xA;&#x9;C418.457367,695.828369 430.646606,702.922913 442.608948,710.381409 &#xA;&#x9;C447.499634,713.430725 450.912506,712.070618 454.887299,708.066101 &#xA;M558.639099,790.936035 &#xA;&#x9;C555.376648,789.090149 552.069214,787.318665 548.862610,785.380371 &#xA;&#x9;C544.417175,782.692993 539.980530,779.979919 535.667725,777.087708 &#xA;&#x9;C532.539001,774.989502 531.620483,772.352783 534.413330,769.109253 &#xA;&#x9;C536.921692,766.195923 539.326660,765.740540 542.795898,767.890747 &#xA;&#x9;C551.212158,773.107300 559.845032,777.977478 568.451111,782.881165 &#xA;&#x9;C569.689026,783.586548 571.261292,783.705139 572.528992,784.054016 &#xA;&#x9;C572.528992,765.624634 572.528992,747.862671 572.528992,729.855530 &#xA;&#x9;C558.487549,737.827881 544.957703,745.574585 531.355408,753.192078 &#xA;&#x9;C527.462585,755.372070 523.261414,754.548096 521.858215,751.359741 &#xA;&#x9;C520.201416,747.595154 522.741638,744.976562 525.445068,743.316101 &#xA;&#x9;C533.869202,738.141663 542.510498,733.319214 551.095581,728.409180 &#xA;&#x9;C556.312988,725.425171 561.582153,722.531616 567.238525,719.367859 &#xA;&#x9;C561.444946,716.107971 555.908508,713.048218 550.425232,709.895996 &#xA;&#x9;C538.442505,703.007385 526.536377,695.982483 514.451965,689.278198 &#xA;&#x9;C513.069214,688.511047 510.445129,688.854797 508.917480,689.665161 &#xA;&#x9;C501.168976,693.776184 493.573700,698.178467 485.960236,702.540771 &#xA;&#x9;C476.588837,707.910278 467.252441,713.340881 457.614777,718.910461 &#xA;&#x9;C464.641357,722.897827 471.250641,726.583069 477.795441,730.379395 &#xA;&#x9;C485.529663,734.865601 493.244843,739.387207 500.892700,744.018188 &#xA;&#x9;C503.954041,745.871887 504.851196,748.494690 503.030853,751.899719 &#xA;&#x9;C501.127258,755.460449 498.568665,755.851562 495.246826,754.044373 &#xA;&#x9;C491.962097,752.257263 488.578094,750.648315 485.330750,748.797852 &#xA;&#x9;C474.779022,742.785339 464.270020,736.697815 452.711060,730.044312 &#xA;&#x9;C452.711060,749.010071 452.711060,766.863647 452.711060,785.069336 &#xA;&#x9;C453.979767,784.378601 455.227661,783.716980 456.458923,783.025818 &#xA;&#x9;C465.959137,777.693237 475.543182,772.501831 484.915344,766.952698 &#xA;&#x9;C489.263763,764.378052 490.797943,768.059509 492.395142,770.172180 &#xA;&#x9;C494.216339,772.581299 492.986755,775.329651 490.355347,776.894287 &#xA;&#x9;C487.287750,778.718323 484.040192,780.237366 480.944458,782.016907 &#xA;&#x9;C473.559448,786.262085 466.217743,790.582520 458.310730,795.191956 &#xA;&#x9;C474.826691,804.615295 490.703796,813.674133 507.007935,822.976562 &#xA;&#x9;C507.007935,815.135620 506.987610,807.980713 507.015411,800.825989 &#xA;&#x9;C507.032562,796.410889 509.408905,793.814636 513.531799,794.050415 &#xA;&#x9;C517.257507,794.263428 519.013855,796.510315 518.988770,800.258301 &#xA;&#x9;C518.943176,807.067871 518.975830,813.878052 518.975830,821.206604 &#xA;&#x9;C535.040649,812.114563 550.422546,803.408936 565.970093,794.609619 &#xA;&#x9;C563.624268,793.346375 561.501160,792.203125 558.639099,790.936035 &#xA;M630.410522,818.086731 &#xA;&#x9;C639.131348,822.958191 647.852112,827.829590 656.912170,832.890503 &#xA;&#x9;C656.912170,781.987488 656.912170,731.841309 656.912170,681.332581 &#xA;&#x9;C655.236206,682.043884 653.684143,682.521973 652.312744,683.313293 &#xA;&#x9;C641.600647,689.494507 630.940369,695.765442 620.230286,701.950256 &#xA;&#x9;C609.707581,708.026794 599.111145,713.976624 588.626709,720.117859 &#xA;&#x9;C586.282593,721.490967 584.790833,723.249084 584.851196,726.687012 &#xA;&#x9;C585.155090,744.014526 585.780884,761.399292 584.706543,778.665222 &#xA;&#x9;C584.025452,789.611206 586.822266,796.453491 597.687012,799.379395 &#xA;&#x9;C599.648132,799.907532 601.305115,801.528076 603.134094,802.589844 &#xA;&#x9;C611.973633,807.721313 620.823975,812.834106 630.410522,818.086731 &#xA;M368.975861,801.500000 &#xA;&#x9;C368.975861,811.845886 368.975861,822.191772 368.975861,833.214111 &#xA;&#x9;C375.320526,829.791260 381.215851,826.740234 386.988220,823.471985 &#xA;&#x9;C403.094879,814.352295 419.138458,805.121216 435.237244,795.987488 &#xA;&#x9;C438.252045,794.277100 441.108063,792.805176 440.170349,788.384644 &#xA;&#x9;C439.660950,785.983215 440.004059,783.395935 440.003265,780.892456 &#xA;&#x9;C439.998016,764.261902 439.589478,747.616089 440.204132,731.008179 &#xA;&#x9;C440.460083,724.093018 438.044006,720.582520 432.189789,717.445801 &#xA;&#x9;C418.454376,710.086365 405.122070,701.976746 391.588348,694.237793 &#xA;&#x9;C384.315460,690.078979 376.963348,686.058472 368.976471,681.601318 &#xA;&#x9;C368.976471,721.704712 368.976471,761.102356 368.975861,801.500000 &#xA;M588.409729,878.935364 &#xA;&#x9;C608.587524,867.553528 628.765320,856.171631 649.214661,844.636658 &#xA;&#x9;C648.260986,843.865112 647.797241,843.376831 647.237976,843.054077 &#xA;&#x9;C634.015808,835.423584 620.790588,827.798340 607.550354,820.199280 &#xA;&#x9;C598.250732,814.861877 588.972290,809.483826 579.571411,804.329956 &#xA;&#x9;C578.034058,803.487244 575.670837,803.036560 574.113098,803.592285 &#xA;&#x9;C571.412048,804.556030 569.074829,806.505676 566.528198,807.940979 &#xA;&#x9;C553.528564,815.267517 540.590759,822.709961 527.458618,829.791748 &#xA;&#x9;C522.441406,832.497375 518.476746,834.079651 519.288696,841.856995 &#xA;&#x9;C520.528748,853.733643 519.176025,865.877319 518.984924,877.908691 &#xA;&#x9;C518.903503,883.038696 518.918640,888.171997 518.991455,893.302368 &#xA;&#x9;C519.101807,901.084656 519.300903,908.865662 519.469360,916.987976 &#xA;&#x9;C521.228821,916.319824 522.013428,916.126648 522.694824,915.747864 &#xA;&#x9;C537.755676,907.376160 552.825928,899.020874 567.847229,890.578430 &#xA;&#x9;C574.508179,886.834717 581.065735,882.907104 588.409729,878.935364 &#xA;M415.583282,866.931702 &#xA;&#x9;C445.827881,884.034668 476.072479,901.137573 506.311676,918.237488 &#xA;&#x9;C506.578857,914.834167 507.004120,912.018555 506.988464,909.205383 &#xA;&#x9;C506.861115,886.291199 506.478271,863.375977 506.676514,840.465454 &#xA;&#x9;C506.702515,837.459473 505.921509,836.438293 503.803925,835.233276 &#xA;&#x9;C496.611633,831.140442 489.482880,826.936035 482.307648,822.812988 &#xA;&#x9;C472.026611,816.905212 461.769348,810.952759 451.385193,805.231262 &#xA;&#x9;C449.897980,804.411865 447.304413,803.974182 445.987122,804.716370 &#xA;&#x9;C426.325287,815.793335 406.785919,827.087891 387.234344,838.360107 &#xA;&#x9;C383.688477,840.404419 380.217041,842.577759 376.241608,844.974670 &#xA;&#x9;C389.707642,852.446167 402.346222,859.458557 415.583282,866.931702 &#xA;z"></path>





<path fill="#FE6A08" opacity="1.000000" stroke="none" d="&#xA;M405.976410,688.031067 &#xA;&#x9;C395.997162,682.756348 385.951508,677.601562 376.079224,672.133667 &#xA;&#x9;C373.134888,670.502930 373.850494,667.628906 377.773773,665.226379 &#xA;&#x9;C383.729950,661.578857 389.784576,658.089233 395.842468,654.611206 &#xA;&#x9;C422.644867,639.223083 449.456451,623.850830 476.279633,608.499084 &#xA;&#x9;C486.656708,602.559937 497.173431,596.857361 507.433350,590.723816 &#xA;&#x9;C513.268982,587.235168 517.789856,590.555298 522.256104,593.063232 &#xA;&#x9;C539.637329,602.823059 556.863037,612.860657 574.118225,622.843933 &#xA;&#x9;C586.608704,630.070496 599.015625,637.441956 611.531067,644.624573 &#xA;&#x9;C623.622925,651.564209 635.833862,658.296753 647.918457,665.248840 &#xA;&#x9;C649.672974,666.258179 651.015137,667.984253 652.548096,669.378662 &#xA;&#x9;C650.992249,670.767822 649.618103,672.476929 647.845154,673.483765 &#xA;&#x9;C643.227295,676.106201 638.434509,678.420654 633.184448,680.772705 &#xA;&#x9;C632.657410,680.687378 632.301025,680.360474 632.530151,680.094299 &#xA;&#x9;C638.462341,676.451904 644.165466,673.075684 650.591553,669.271484 &#xA;&#x9;C637.934265,662.099121 626.058838,655.418518 614.230225,648.656067 &#xA;&#x9;C593.926819,637.048767 573.655945,625.384521 553.365112,613.755249 &#xA;&#x9;C541.663208,607.048523 529.706726,600.741638 518.364197,593.475220 &#xA;&#x9;C514.061584,590.718750 511.005554,591.108521 507.263092,593.326050 &#xA;&#x9;C501.531097,596.722534 495.833069,600.180176 490.034729,603.460022 &#xA;&#x9;C476.436005,611.151917 462.717987,618.634766 449.172668,626.418762 &#xA;&#x9;C426.074829,639.692261 403.065186,653.119507 380.051117,666.538208 &#xA;&#x9;C378.891937,667.214050 378.040985,668.418579 377.046509,669.376953 &#xA;&#x9;C378.058685,670.254700 378.962891,671.317566 380.100159,671.980774 &#xA;&#x9;C388.922302,677.124634 397.789368,682.191467 406.475891,687.469238 &#xA;&#x9;C406.198242,687.781311 406.087311,687.906189 405.976410,688.031067 &#xA;z"></path>
<path fill="#FE6A08" opacity="1.000000" stroke="none" d="&#xA;M632.835449,680.850952 &#xA;&#x9;C628.548523,684.062195 624.258667,687.415100 619.584473,690.098389 &#xA;&#x9;C607.190796,697.213379 594.567200,703.928162 582.181396,711.056396 &#xA;&#x9;C579.027832,712.871338 576.468445,712.967590 573.396667,711.197144 &#xA;&#x9;C555.398315,700.823547 537.221985,690.750854 519.391541,680.098328 &#xA;&#x9;C514.046143,676.904785 510.046326,677.087769 504.836792,680.275269 &#xA;&#x9;C490.100006,689.292114 475.039276,697.781433 460.052643,706.385315 &#xA;&#x9;C458.515778,707.267639 456.617737,707.520874 454.457550,708.045776 &#xA;&#x9;C454.027802,708.025452 453.926910,707.920532 454.073151,707.600952 &#xA;&#x9;C456.481995,706.013306 458.763397,704.777466 461.004181,703.471924 &#xA;&#x9;C477.005310,694.149292 493.021790,684.852600 508.971283,675.442322 &#xA;&#x9;C511.763275,673.795044 513.849365,674.211975 516.524048,675.907043 &#xA;&#x9;C523.244263,680.165894 530.200989,684.056580 537.116638,688.000671 &#xA;&#x9;C548.127991,694.280762 559.384277,700.161255 570.133057,706.859009 &#xA;&#x9;C575.363403,710.118225 579.607605,711.749329 584.805847,707.201050 &#xA;&#x9;C586.951172,705.323914 589.941040,704.433289 592.488098,702.990234 &#xA;&#x9;C605.769409,695.465332 619.031921,687.907104 632.301025,680.360474 &#xA;&#x9;C632.301025,680.360474 632.657410,680.687378 632.835449,680.850952 &#xA;z"></path>
<path fill="#FE6A08" opacity="1.000000" stroke="none" d="&#xA;M454.077484,708.078613 &#xA;&#x9;C450.912506,712.070618 447.499634,713.430725 442.608948,710.381409 &#xA;&#x9;C430.646606,702.922913 418.457367,695.828369 406.167908,688.309204 &#xA;&#x9;C406.087311,687.906189 406.198242,687.781311 406.755981,687.690674 &#xA;&#x9;C416.364868,692.875244 425.437164,698.195007 434.721375,703.114868 &#xA;&#x9;C440.656067,706.259705 445.912506,712.833618 453.926910,707.920532 &#xA;&#x9;C453.926910,707.920532 454.027802,708.025452 454.077484,708.078613 &#xA;z"></path>

</svg>